<?xml version="1.0" encoding="UTF-8"?>
<svg id="_ëÎÓÈ_1" data-name="ëÎÓÈ 1" xmlns="http://www.w3.org/2000/svg" viewBox="0 0 600 300">
  <defs>
    <style>
      .cls-1 {
        fill: none;
      }

      .cls-2 {
        fill: #c9d4e8;
      }
    </style>
  </defs>
  <g>
    <path class="cls-2" d="M138.75,213.75c4.18-1.15,7.9-2.8,11.25-4.85,21.99-13.45,26.31-41.49,44.3-58.9,5.26-5.09,11.53-9.07,19.45-11.25,39.38-10.82,35.62-64.18,75-75,4.18-1.15,7.9-2.8,11.25-4.85,21.99-13.45,26.31-41.49,44.3-58.9h5.28c-20.89,17.44-24.44,49.65-49.58,62.81-2.68,1.4-5.58,2.56-8.75,3.44-39.38,10.82-35.62,64.18-75,75-6.57,1.81-12.01,4.86-16.67,8.75-20.89,17.44-24.44,49.65-49.58,62.81-2.68,1.4-5.58,2.56-8.75,3.44-39.38,10.82-35.62,64.18-75,75-6.57,1.81-12.01,4.86-16.67,8.75h-5.28c5.26-5.09,11.53-9.07,19.45-11.25,39.38-10.82,35.62-64.18,75-75Z"/>
    <path class="cls-2" d="M143.75,218.75c2.21-.61,4.29-1.36,6.25-2.23,28.65-12.72,30.85-49.51,55.35-66.52,3.9-2.71,8.31-4.85,13.4-6.25,39.38-10.82,35.62-64.18,75-75,2.21-.61,4.29-1.36,6.25-2.23,28.65-12.72,30.85-49.51,55.35-66.52h6.56c-28.95,15.74-29.43,57.97-61.91,70.04-1.21.45-2.46.86-3.75,1.21-39.33,10.81-35.65,64.19-75,75-3.4.93-6.5,2.2-9.34,3.75-28.95,15.74-29.43,57.97-61.91,70.04-1.21.45-2.46.86-3.75,1.21-39.33,10.81-35.65,64.19-75,75-3.4.93-6.5,2.2-9.34,3.75h-6.56c3.9-2.71,8.31-4.85,13.4-6.25,39.38-10.82,35.62-64.18,75-75Z"/>
    <path class="cls-2" d="M43.75,268.75c39.38-10.82,35.62-64.18,75-75,14.79-4.06,23.82-14.43,31.25-26.5,3.91-6.36,6.2-11.09,9.7-17.25,7.99-14.04,17.36-26.66,34.05-31.25,39.38-10.82,35.62-64.18,75-75,14.79-4.06,23.82-14.43,31.25-26.5,3.91-6.36,6.2-11.09,9.7-17.25h3.95c-4.8,8.13-8.17,15.5-13.65,23.64-6.97,10.37-15.58,18.99-28.75,22.61-39.38,10.82-35.62,64.18-75,75-15.7,4.31-24.91,15.73-32.6,28.75-4.8,8.13-8.17,15.5-13.65,23.64-6.97,10.37-15.58,18.99-28.75,22.61-39.38,10.82-35.62,64.18-75,75-15.7,4.31-24.91,15.73-32.6,28.75h-3.95c7.99-14.04,17.36-26.66,34.05-31.25Z"/>
    <path class="cls-2" d="M148.75,223.75c.42-.12.84-.24,1.25-.37,36.88-11.29,34.81-60.25,69.89-73.38,1.24-.47,2.53-.88,3.86-1.25,39.49-10.85,35.57-64.16,75-75,.42-.12.84-.24,1.25-.37,36.88-11.29,34.81-60.25,69.89-73.38h10.21c-1.24.46-2.53.88-3.86,1.25-39.47,10.85-35.52,64.15-75,75-.42.12-.84.24-1.25.37-36.89,11.3-34.84,60.26-69.89,73.38-1.24.46-2.53.88-3.86,1.25-39.47,10.85-35.52,64.15-75,75-.42.12-.84.24-1.25.37-36.89,11.3-34.84,60.26-69.89,73.38h-10.21c1.24-.47,2.53-.88,3.86-1.25,39.49-10.85,35.57-64.16,75-75Z"/>
    <path class="cls-2" d="M48.75,273.75c39.38-10.82,35.62-64.18,75-75,11.64-3.2,19.72-10.3,26.25-19.07,7.35-9.87,11.31-19.41,17.66-29.68,7.4-11.97,16.41-22.21,31.09-26.25,39.38-10.82,35.62-64.18,75-75,11.64-3.2,19.72-10.3,26.25-19.07,7.35-9.87,11.31-19.41,17.66-29.68h4.09c-7.76,11.88-12.51,24.29-21.74,35.35-6.09,7.29-13.55,13.09-23.75,15.9-39.38,10.82-35.62,64.18-75,75-13.65,3.75-22.4,12.87-29.51,23.75-7.76,11.88-12.51,24.29-21.74,35.35-6.09,7.29-13.55,13.09-23.75,15.9-39.38,10.82-35.62,64.18-75,75-13.65,3.75-22.4,12.87-29.51,23.75h-4.09c7.4-11.97,16.41-22.21,31.09-26.25Z"/>
    <path class="cls-2" d="M53.75,278.75c39.38-10.82,35.62-64.18,75-75,8.85-2.43,15.63-7.12,21.25-13.08,11.39-12.08,16.52-27.19,25.93-40.67,6.81-9.76,15.23-17.79,27.82-21.25,39.38-10.82,35.62-64.18,75-75,8.85-2.43,15.63-7.12,21.25-13.08,11.39-12.08,16.52-27.19,25.93-40.67h4.31c-11.23,14.91-16.52,32.86-30.24,45.66-5.11,4.77-11.18,8.5-18.75,10.59-39.38,10.82-35.62,64.18-75,75-11.5,3.16-19.52,10.13-26.01,18.75-11.23,14.91-16.52,32.86-30.24,45.66-5.11,4.77-11.18,8.5-18.75,10.59-39.38,10.82-35.62,64.18-75,75-11.5,3.16-19.52,10.13-26.01,18.75h-4.31c6.81-9.76,15.23-17.79,27.82-21.25Z"/>
    <path class="cls-2" d="M58.75,283.75c39.38-10.82,35.62-64.18,75-75,6.38-1.75,11.68-4.68,16.25-8.4,16.27-13.27,21.48-34.27,34.71-50.35,6.14-7.46,13.68-13.4,24.04-16.25,39.38-10.82,35.62-64.18,75-75,6.38-1.75,11.68-4.68,16.25-8.4,16.27-13.27,21.48-34.27,34.71-50.35h4.67c-15.54,17.01-20.31,41.24-39.38,54.75-3.98,2.82-8.5,5.06-13.75,6.5-39.38,10.82-35.62,64.18-75,75-9.18,2.52-16.14,7.47-21.87,13.75-15.54,17.01-20.31,41.24-39.38,54.75-3.98,2.82-8.5,5.06-13.75,6.5-39.38,10.82-35.62,64.18-75,75-9.18,2.52-16.14,7.47-21.87,13.75h-4.67c6.14-7.46,13.68-13.4,24.04-16.25Z"/>
    <path class="cls-2" d="M38.75,263.75c39.38-10.82,35.62-64.18,75-75,18.25-5.02,27.74-19.62,36.25-35.2l1.93-3.55c8.66-15.96,18.17-31.12,36.82-36.25,39.38-10.82,35.62-64.18,75-75,18.25-5.02,27.74-19.62,36.25-35.2l1.93-3.55h3.87c-2.18,3.93-3.39,6.33-5.8,10.53-7.93,13.83-17.26,26.19-33.75,30.72-39.38,10.82-35.62,64.18-75,75-17.68,4.86-27.14,18.73-35.45,33.75-2.18,3.93-3.39,6.33-5.8,10.53-7.93,13.83-17.26,26.19-33.75,30.72-39.38,10.82-35.62,64.18-75,75-17.68,4.86-27.14,18.73-35.45,33.75H1.93c8.66-15.96,18.17-31.12,36.82-36.25Z"/>
    <path class="cls-2" d="M150,229.96c1.21-.45,2.46-.86,3.75-1.21,39.38-10.82,35.62-64.18,75-75,3.4-.93,6.5-2.2,9.34-3.75,28.99-15.76,29.41-57.96,61.91-70.04,1.21-.45,2.46-.86,3.75-1.21,39.38-10.82,35.62-64.18,75-75,3.4-.93,6.5-2.2,9.34-3.75h6.56c-3.9,2.71-8.31,4.85-13.4,6.25-39.38,10.82-35.62,64.18-75,75-2.21.61-4.29,1.36-6.25,2.23-28.65,12.72-30.86,49.52-55.35,66.52-3.9,2.7-8.31,4.85-13.4,6.25-39.38,10.82-35.62,64.18-75,75-2.21.61-4.29,1.36-6.25,2.23-28.65,12.72-30.86,49.52-55.35,66.52h-6.56c28.99-15.76,29.41-57.96,61.91-70.04Z"/>
    <path class="cls-2" d="M150,237.19c2.68-1.4,5.58-2.56,8.75-3.44,39.38-10.82,35.62-64.18,75-75,6.57-1.81,12.01-4.86,16.67-8.75,20.88-17.43,24.44-49.65,49.58-62.81,2.68-1.4,5.58-2.56,8.75-3.44,39.38-10.82,35.62-64.18,75-75,6.57-1.81,12.01-4.86,16.67-8.75h5.28c-5.26,5.09-11.53,9.07-19.45,11.25-39.38,10.82-35.62,64.18-75,75-4.18,1.15-7.9,2.8-11.25,4.85-21.95,13.42-26.34,41.52-44.3,58.9-5.26,5.09-11.53,9.07-19.45,11.25-39.38,10.82-35.62,64.18-75,75-4.18,1.15-7.9,2.8-11.25,4.85-21.95,13.42-26.34,41.52-44.3,58.9h-5.28c20.88-17.43,24.44-49.65,49.58-62.81Z"/>
    <path class="cls-2" d="M150,254.34c5.11-4.77,11.18-8.51,18.75-10.59,39.38-10.82,35.62-64.18,75-75,11.5-3.16,19.52-10.13,26.01-18.75,11.24-14.93,16.51-32.85,30.24-45.66,5.11-4.77,11.18-8.51,18.75-10.59,39.38-10.82,35.62-64.18,75-75,11.5-3.16,19.52-10.13,26.01-18.75h4.31c-6.81,9.76-15.23,17.79-27.82,21.25-39.38,10.82-35.62,64.18-75,75-8.85,2.43-15.63,7.12-21.25,13.08-11.39,12.08-16.52,27.19-25.93,40.67-6.81,9.76-15.23,17.79-27.82,21.25-39.38,10.82-35.62,64.18-75,75-8.85,2.43-15.63,7.12-21.25,13.08-11.39,12.08-16.52,27.19-25.93,40.67h-4.31c11.24-14.93,16.51-32.85,30.24-45.66Z"/>
    <path class="cls-2" d="M150,245.25c3.98-2.82,8.5-5.06,13.75-6.5,39.38-10.82,35.62-64.18,75-75,9.18-2.52,16.14-7.47,21.88-13.75,15.49-16.96,20.34-41.26,39.37-54.75,3.98-2.82,8.5-5.06,13.75-6.5,39.38-10.82,35.62-64.18,75-75,9.18-2.52,16.14-7.47,21.88-13.75h4.67c-6.14,7.46-13.68,13.4-24.04,16.25-39.38,10.82-35.62,64.18-75,75-6.38,1.75-11.68,4.68-16.25,8.4-16.28,13.27-21.47,34.27-34.71,50.35-6.14,7.46-13.68,13.4-24.04,16.25-39.38,10.82-35.62,64.18-75,75-6.38,1.75-11.68,4.68-16.25,8.4-16.28,13.27-21.47,34.27-34.71,50.35h-4.67c15.49-16.96,20.34-41.26,39.37-54.75Z"/>
    <path class="cls-2" d="M34.71,150c6.14-7.46,13.68-13.4,24.04-16.25,39.38-10.82,35.62-64.18,75-75,6.38-1.75,11.68-4.68,16.25-8.4,16.27-13.27,21.48-34.27,34.71-50.35h4.67c-15.54,17.01-20.31,41.24-39.38,54.75-3.98,2.82-8.5,5.06-13.75,6.5-39.38,10.82-35.62,64.18-75,75-9.18,2.52-16.14,7.47-21.87,13.75-15.54,17.01-20.31,41.24-39.38,54.75v-4.4c16.27-13.27,21.48-34.27,34.71-50.35Z"/>
    <path class="cls-2" d="M55.35,150c3.9-2.71,8.31-4.85,13.4-6.25,39.38-10.82,35.62-64.18,75-75,2.21-.61,4.29-1.36,6.25-2.23,28.65-12.72,30.85-49.51,55.35-66.52h6.56c-28.95,15.74-29.43,57.97-61.91,70.04-1.21.45-2.46.86-3.75,1.21-39.33,10.81-35.65,64.19-75,75-3.4.93-6.5,2.2-9.34,3.75-28.95,15.74-29.43,57.97-61.91,70.04v-3.52c28.65-12.72,30.85-49.51,55.35-66.52Z"/>
    <path class="cls-2" d="M44.3,150c5.26-5.09,11.53-9.07,19.45-11.25,39.38-10.82,35.62-64.18,75-75,4.18-1.15,7.9-2.8,11.25-4.85,21.99-13.45,26.31-41.49,44.3-58.9h5.28c-20.89,17.44-24.44,49.65-49.58,62.81-2.68,1.4-5.58,2.56-8.75,3.44-39.38,10.82-35.62,64.18-75,75-6.57,1.81-12.01,4.86-16.67,8.75-20.89,17.44-24.44,49.65-49.58,62.81v-3.92c21.99-13.45,26.31-41.49,44.3-58.9Z"/>
    <path class="cls-2" d="M33.75,258.75c39.38-10.82,35.62-64.18,75-75,17.68-4.86,27.14-18.73,35.45-33.75,2.16-3.91,3.4-6.35,5.8-10.53,7.93-13.83,17.27-26.19,33.75-30.72,39.38-10.82,35.62-64.18,75-75,17.68-4.86,27.14-18.73,35.45-33.75h3.87c-8.67,15.96-18.17,31.12-36.82,36.25-39.38,10.82-35.62,64.18-75,75-18.25,5.01-27.74,19.62-36.25,35.2-.42.77-.84,1.53-1.25,2.3-.22.42-.45.83-.68,1.25-8.67,15.96-18.17,31.12-36.82,36.25-39.38,10.82-35.62,64.18-75,75-18.25,5.01-27.74,19.62-36.25,35.2v-6.97c7.93-13.83,17.27-26.19,33.75-30.72Z"/>
    <path class="cls-2" d="M23.75,248.75c39.38-10.82,35.62-64.18,75-75,13.65-3.75,22.4-12.87,29.51-23.75,7.76-11.88,12.51-24.29,21.74-35.35,6.09-7.29,13.55-13.09,23.75-15.9,39.38-10.82,35.62-64.18,75-75,13.65-3.75,22.4-12.87,29.51-23.75h4.09c-7.4,11.97-16.41,22.21-31.09,26.25-39.38,10.82-35.62,64.18-75,75-11.64,3.2-19.72,10.3-26.25,19.07-7.35,9.87-11.31,19.42-17.66,29.68-7.4,11.97-16.41,22.21-31.09,26.25-39.38,10.82-35.62,64.18-75,75-11.64,3.2-19.72,10.3-26.25,19.07v-5.67c6.09-7.29,13.55-13.09,23.75-15.9Z"/>
    <path class="cls-2" d="M93.75,168.75c11.5-3.16,19.52-10.13,26.01-18.75,11.24-14.93,16.51-32.85,30.24-45.66,5.11-4.77,11.18-8.51,18.75-10.59,39.38-10.82,35.62-64.18,75-75,11.5-3.16,19.52-10.13,26.01-18.75h4.31c-6.81,9.76-15.23,17.79-27.82,21.25-39.38,10.82-35.62,64.18-75,75-8.85,2.43-15.63,7.12-21.25,13.08-11.39,12.08-16.52,27.19-25.93,40.67-6.81,9.76-15.23,17.79-27.82,21.25-39.38,10.82-35.62,64.18-75,75-8.85,2.43-15.63,7.12-21.25,13.08v-4.99c5.11-4.77,11.18-8.51,18.75-10.59,39.38-10.82,35.62-64.18,75-75Z"/>
    <path class="cls-2" d="M28.75,253.75c39.38-10.82,35.62-64.18,75-75,15.7-4.31,24.91-15.73,32.6-28.75,4.8-8.13,8.17-15.5,13.65-23.64,6.97-10.37,15.58-18.99,28.75-22.61,39.38-10.82,35.62-64.18,75-75,15.7-4.31,24.91-15.73,32.6-28.75h3.95c-7.99,14.04-17.36,26.66-34.05,31.25-39.38,10.82-35.62,64.18-75,75-14.79,4.06-23.82,14.43-31.25,26.5-3.91,6.36-6.2,11.09-9.7,17.25-7.99,14.04-17.36,26.66-34.05,31.25-39.38,10.82-35.62,64.18-75,75-14.79,4.06-23.82,14.43-31.25,26.5v-6.4c6.97-10.37,15.58-18.99,28.75-22.61Z"/>
    <path class="cls-2" d="M88.75,163.75c9.18-2.52,16.14-7.47,21.88-13.75,15.49-16.96,20.34-41.26,39.37-54.75,3.98-2.82,8.5-5.06,13.75-6.5,39.38-10.82,35.62-64.18,75-75,9.18-2.52,16.14-7.47,21.88-13.75h4.67c-6.14,7.46-13.68,13.4-24.04,16.25-39.38,10.82-35.62,64.18-75,75-6.38,1.75-11.68,4.68-16.25,8.4-16.28,13.27-21.47,34.27-34.71,50.35-6.14,7.46-13.68,13.4-24.04,16.25-39.38,10.82-35.62,64.18-75,75-6.38,1.75-11.68,4.68-16.25,8.4v-4.4c3.98-2.82,8.5-5.06,13.75-6.5,39.38-10.82,35.62-64.18,75-75Z"/>
    <path class="cls-2" d="M78.75,153.75c3.4-.93,6.5-2.2,9.34-3.75,28.99-15.76,29.41-57.96,61.91-70.04,1.21-.45,2.46-.86,3.75-1.21,39.38-10.82,35.62-64.18,75-75,3.4-.93,6.5-2.2,9.34-3.75h6.56c-3.9,2.71-8.31,4.85-13.4,6.25-39.38,10.82-35.62,64.18-75,75-2.21.61-4.29,1.36-6.25,2.23-28.65,12.72-30.86,49.52-55.35,66.52-3.9,2.7-8.31,4.85-13.4,6.25-39.38,10.82-35.62,64.18-75,75-2.21.61-4.29,1.36-6.25,2.23v-3.52c1.21-.45,2.46-.86,3.75-1.21,39.38-10.82,35.62-64.18,75-75Z"/>
    <path class="cls-2" d="M69.89,150c1.24-.47,2.53-.88,3.86-1.25,39.49-10.85,35.57-64.16,75-75,.42-.12.84-.24,1.25-.37C186.88,62.09,184.81,13.14,219.89,0h10.21c-1.24.46-2.53.88-3.86,1.25-39.47,10.85-35.52,64.15-75,75-.42.12-.84.24-1.25.37-36.89,11.3-34.84,60.26-69.89,73.38-1.24.46-2.53.88-3.86,1.25-39.47,10.85-35.52,64.15-75,75-.42.12-.84.24-1.25.37v-3.23c36.88-11.29,34.81-60.25,69.89-73.38Z"/>
    <path class="cls-2" d="M83.75,158.75c6.57-1.81,12.01-4.86,16.67-8.75,20.88-17.43,24.44-49.65,49.58-62.81,2.68-1.4,5.58-2.56,8.75-3.44,39.38-10.82,35.62-64.18,75-75,6.57-1.81,12.01-4.86,16.67-8.75h5.28c-5.26,5.09-11.53,9.07-19.45,11.25-39.38,10.82-35.62,64.18-75,75-4.18,1.15-7.9,2.8-11.25,4.85-21.95,13.42-26.34,41.52-44.3,58.9-5.26,5.09-11.53,9.07-19.45,11.25-39.38,10.82-35.62,64.18-75,75-4.18,1.15-7.9,2.8-11.25,4.85v-3.92c2.68-1.4,5.58-2.56,8.75-3.44,39.38-10.82,35.62-64.18,75-75Z"/>
    <path class="cls-2" d="M288.75,213.75c4.18-1.15,7.9-2.8,11.25-4.85,21.99-13.45,26.31-41.49,44.3-58.9,5.26-5.09,11.53-9.07,19.45-11.25,39.38-10.82,35.62-64.18,75-75,4.18-1.15,7.9-2.8,11.25-4.85,21.99-13.45,26.31-41.49,44.3-58.9h5.28c-20.89,17.44-24.44,49.65-49.58,62.81-2.68,1.4-5.58,2.56-8.75,3.44-39.38,10.82-35.62,64.18-75,75-6.57,1.81-12.01,4.86-16.67,8.75-20.89,17.44-24.44,49.65-49.58,62.81-2.68,1.4-5.58,2.56-8.75,3.44-39.38,10.82-35.62,64.18-75,75-6.57,1.81-12.01,4.86-16.67,8.75h-5.28c5.26-5.09,11.53-9.07,19.45-11.25,39.38-10.82,35.62-64.18,75-75Z"/>
    <path class="cls-2" d="M293.75,218.75c2.21-.61,4.29-1.36,6.25-2.23,28.65-12.72,30.85-49.51,55.35-66.52,3.9-2.71,8.31-4.85,13.4-6.25,39.38-10.82,35.62-64.18,75-75,2.21-.61,4.29-1.36,6.25-2.23,28.65-12.72,30.85-49.51,55.35-66.52h6.56c-28.95,15.74-29.43,57.97-61.91,70.04-1.21.45-2.46.86-3.75,1.21-39.33,10.81-35.65,64.19-75,75-3.4.93-6.5,2.2-9.34,3.75-28.95,15.74-29.43,57.97-61.91,70.04-1.21.45-2.46.86-3.75,1.21-39.33,10.81-35.65,64.19-75,75-3.4.93-6.5,2.2-9.34,3.75h-6.56c3.9-2.71,8.31-4.85,13.4-6.25,39.38-10.82,35.62-64.18,75-75Z"/>
    <path class="cls-2" d="M193.75,268.75c39.38-10.82,35.62-64.18,75-75,14.79-4.06,23.82-14.43,31.25-26.5,3.91-6.36,6.2-11.09,9.7-17.25,7.99-14.04,17.36-26.66,34.05-31.25,39.38-10.82,35.62-64.18,75-75,14.79-4.06,23.82-14.43,31.25-26.5,3.91-6.36,6.2-11.09,9.7-17.25h3.95c-4.8,8.13-8.17,15.5-13.65,23.64-6.97,10.37-15.58,18.99-28.75,22.61-39.38,10.82-35.62,64.18-75,75-15.7,4.31-24.91,15.73-32.6,28.75-4.8,8.13-8.17,15.5-13.65,23.64-6.97,10.37-15.58,18.99-28.75,22.61-39.38,10.82-35.62,64.18-75,75-15.7,4.31-24.91,15.73-32.6,28.75h-3.95c7.99-14.04,17.36-26.66,34.05-31.25Z"/>
    <path class="cls-2" d="M298.75,223.75c.42-.12.84-.24,1.25-.37,36.88-11.29,34.81-60.25,69.89-73.38,1.24-.47,2.53-.88,3.86-1.25,39.49-10.85,35.57-64.16,75-75,.42-.12.84-.24,1.25-.37,36.88-11.29,34.81-60.25,69.89-73.38h10.21c-1.24.46-2.53.88-3.86,1.25-39.47,10.85-35.52,64.15-75,75-.42.12-.84.24-1.25.37-36.89,11.3-34.84,60.26-69.89,73.38-1.24.46-2.53.88-3.86,1.25-39.47,10.85-35.52,64.15-75,75-.42.12-.84.24-1.25.37-36.89,11.3-34.84,60.26-69.89,73.38h-10.21c1.24-.47,2.53-.88,3.86-1.25,39.49-10.85,35.57-64.16,75-75Z"/>
    <path class="cls-2" d="M198.75,273.75c39.38-10.82,35.62-64.18,75-75,11.64-3.2,19.72-10.3,26.25-19.07,7.35-9.87,11.31-19.41,17.66-29.68,7.4-11.97,16.41-22.21,31.09-26.25,39.38-10.82,35.62-64.18,75-75,11.64-3.2,19.72-10.3,26.25-19.07,7.35-9.87,11.31-19.41,17.66-29.68h4.09c-7.76,11.88-12.51,24.29-21.74,35.35-6.09,7.29-13.55,13.09-23.75,15.9-39.38,10.82-35.62,64.18-75,75-13.65,3.75-22.4,12.87-29.51,23.75-7.76,11.88-12.51,24.29-21.74,35.35-6.09,7.29-13.55,13.09-23.75,15.9-39.38,10.82-35.62,64.18-75,75-13.65,3.75-22.4,12.87-29.51,23.75h-4.09c7.4-11.97,16.41-22.21,31.09-26.25Z"/>
    <path class="cls-2" d="M203.75,278.75c39.38-10.82,35.62-64.18,75-75,8.85-2.43,15.63-7.12,21.25-13.08,11.39-12.08,16.52-27.19,25.93-40.67,6.81-9.76,15.23-17.79,27.82-21.25,39.38-10.82,35.62-64.18,75-75,8.85-2.43,15.63-7.12,21.25-13.08,11.39-12.08,16.52-27.19,25.93-40.67h4.31c-11.23,14.91-16.52,32.86-30.24,45.66-5.11,4.77-11.18,8.5-18.75,10.59-39.38,10.82-35.62,64.18-75,75-11.5,3.16-19.52,10.13-26.01,18.75-11.23,14.91-16.52,32.86-30.24,45.66-5.11,4.77-11.18,8.5-18.75,10.59-39.38,10.82-35.62,64.18-75,75-11.5,3.16-19.52,10.13-26.01,18.75h-4.31c6.81-9.76,15.23-17.79,27.82-21.25Z"/>
    <path class="cls-2" d="M208.75,283.75c39.38-10.82,35.62-64.18,75-75,6.38-1.75,11.68-4.68,16.25-8.4,16.27-13.27,21.48-34.27,34.71-50.35,6.14-7.46,13.68-13.4,24.04-16.25,39.38-10.82,35.62-64.18,75-75,6.38-1.75,11.68-4.68,16.25-8.4,16.27-13.27,21.48-34.27,34.71-50.35h4.67c-15.54,17.01-20.31,41.24-39.38,54.75-3.98,2.82-8.5,5.06-13.75,6.5-39.38,10.82-35.62,64.18-75,75-9.18,2.52-16.14,7.47-21.87,13.75-15.54,17.01-20.31,41.24-39.38,54.75-3.98,2.82-8.5,5.06-13.75,6.5-39.38,10.82-35.62,64.18-75,75-9.18,2.52-16.14,7.47-21.87,13.75h-4.67c6.14-7.46,13.68-13.4,24.04-16.25Z"/>
    <path class="cls-2" d="M188.75,263.75c39.38-10.82,35.62-64.18,75-75,18.25-5.02,27.74-19.62,36.25-35.2l1.93-3.55c8.66-15.96,18.17-31.12,36.82-36.25,39.38-10.82,35.62-64.18,75-75,18.25-5.02,27.74-19.62,36.25-35.2l1.93-3.55h3.87c-2.18,3.93-3.39,6.33-5.8,10.53-7.93,13.83-17.26,26.19-33.75,30.72-39.38,10.82-35.62,64.18-75,75-17.68,4.86-27.14,18.73-35.45,33.75-2.18,3.93-3.39,6.33-5.8,10.53-7.93,13.83-17.26,26.19-33.75,30.72-39.38,10.82-35.62,64.18-75,75-17.68,4.86-27.14,18.73-35.45,33.75h-3.87c8.66-15.96,18.17-31.12,36.82-36.25Z"/>
    <path class="cls-2" d="M300,229.96c1.21-.45,2.46-.86,3.75-1.21,39.38-10.82,35.62-64.18,75-75,3.4-.93,6.5-2.2,9.34-3.75,28.99-15.76,29.41-57.96,61.91-70.04,1.21-.45,2.46-.86,3.75-1.21,39.38-10.82,35.62-64.18,75-75,3.4-.93,6.5-2.2,9.34-3.75h6.56c-3.9,2.71-8.31,4.85-13.4,6.25-39.38,10.82-35.62,64.18-75,75-2.21.61-4.29,1.36-6.25,2.23-28.65,12.72-30.86,49.52-55.35,66.52-3.9,2.7-8.31,4.85-13.4,6.25-39.38,10.82-35.62,64.18-75,75-2.21.61-4.29,1.36-6.25,2.23-28.65,12.72-30.86,49.52-55.35,66.52h-6.56c28.99-15.76,29.41-57.96,61.91-70.04Z"/>
    <path class="cls-2" d="M300,237.19c2.68-1.4,5.58-2.56,8.75-3.44,39.38-10.82,35.62-64.18,75-75,6.57-1.81,12.01-4.86,16.67-8.75,20.88-17.43,24.44-49.65,49.58-62.81,2.68-1.4,5.58-2.56,8.75-3.44,39.38-10.82,35.62-64.18,75-75,6.57-1.81,12.01-4.86,16.67-8.75h5.28c-5.26,5.09-11.53,9.07-19.45,11.25-39.38,10.82-35.62,64.18-75,75-4.18,1.15-7.9,2.8-11.25,4.85-21.95,13.42-26.34,41.52-44.3,58.9-5.26,5.09-11.53,9.07-19.45,11.25-39.38,10.82-35.62,64.18-75,75-4.18,1.15-7.9,2.8-11.25,4.85-21.95,13.42-26.34,41.52-44.3,58.9h-5.28c20.88-17.43,24.44-49.65,49.58-62.81Z"/>
    <path class="cls-2" d="M300,254.34c5.11-4.77,11.18-8.51,18.75-10.59,39.38-10.82,35.62-64.18,75-75,11.5-3.16,19.52-10.13,26.01-18.75,11.24-14.93,16.51-32.85,30.24-45.66,5.11-4.77,11.18-8.51,18.75-10.59,39.38-10.82,35.62-64.18,75-75,11.5-3.16,19.52-10.13,26.01-18.75h4.31c-6.81,9.76-15.23,17.79-27.82,21.25-39.38,10.82-35.62,64.18-75,75-8.85,2.43-15.63,7.12-21.25,13.08-11.39,12.08-16.52,27.19-25.93,40.67-6.81,9.76-15.23,17.79-27.82,21.25-39.38,10.82-35.62,64.18-75,75-8.85,2.43-15.63,7.12-21.25,13.08-11.39,12.08-16.52,27.19-25.93,40.67h-4.31c11.24-14.93,16.51-32.85,30.24-45.66Z"/>
    <path class="cls-2" d="M300,245.25c3.98-2.82,8.5-5.06,13.75-6.5,39.38-10.82,35.62-64.18,75-75,9.18-2.52,16.14-7.47,21.88-13.75,15.49-16.96,20.34-41.26,39.37-54.75,3.98-2.82,8.5-5.06,13.75-6.5,39.38-10.82,35.62-64.18,75-75,9.18-2.52,16.14-7.47,21.88-13.75h4.67c-6.14,7.46-13.68,13.4-24.04,16.25-39.38,10.82-35.62,64.18-75,75-6.38,1.75-11.68,4.68-16.25,8.4-16.28,13.27-21.47,34.27-34.71,50.35-6.14,7.46-13.68,13.4-24.04,16.25-39.38,10.82-35.62,64.18-75,75-6.38,1.75-11.68,4.68-16.25,8.4-16.28,13.27-21.47,34.27-34.71,50.35h-4.67c15.49-16.96,20.34-41.26,39.37-54.75Z"/>
    <path class="cls-2" d="M183.75,258.75c39.38-10.82,35.62-64.18,75-75,17.68-4.86,27.14-18.73,35.45-33.75,2.16-3.91,3.4-6.35,5.8-10.53,7.93-13.83,17.27-26.19,33.75-30.72,39.38-10.82,35.62-64.18,75-75,17.68-4.86,27.14-18.73,35.45-33.75h3.87c-8.67,15.96-18.17,31.12-36.82,36.25-39.38,10.82-35.62,64.18-75,75-18.25,5.01-27.74,19.62-36.25,35.2-.42.77-.84,1.53-1.25,2.3-.22.42-.45.83-.68,1.25-8.67,15.96-18.17,31.12-36.82,36.25-39.38,10.82-35.62,64.18-75,75-18.25,5.01-27.74,19.62-36.25,35.2-.42.77-.84,1.53-1.25,2.3-.22.42-.45.83-.68,1.25h-3.87c2.16-3.91,3.4-6.35,5.8-10.53,7.93-13.83,17.27-26.19,33.75-30.72Z"/>
    <path class="cls-2" d="M173.75,248.75c39.38-10.82,35.62-64.18,75-75,13.65-3.75,22.4-12.87,29.51-23.75,7.76-11.88,12.51-24.29,21.74-35.35,6.09-7.29,13.55-13.09,23.75-15.9,39.38-10.82,35.62-64.18,75-75,13.65-3.75,22.4-12.87,29.51-23.75h4.09c-7.4,11.97-16.41,22.21-31.09,26.25-39.38,10.82-35.62,64.18-75,75-11.64,3.2-19.72,10.3-26.25,19.07-7.35,9.87-11.31,19.42-17.66,29.68-7.4,11.97-16.41,22.21-31.09,26.25-39.38,10.82-35.62,64.18-75,75-11.64,3.2-19.72,10.3-26.25,19.07-7.35,9.87-11.31,19.42-17.66,29.68h-4.09c7.76-11.88,12.51-24.29,21.74-35.35,6.09-7.29,13.55-13.09,23.75-15.9Z"/>
    <path class="cls-2" d="M178.75,253.75c39.38-10.82,35.62-64.18,75-75,15.7-4.31,24.91-15.73,32.6-28.75,4.8-8.13,8.17-15.5,13.65-23.64,6.97-10.37,15.58-18.99,28.75-22.61,39.38-10.82,35.62-64.18,75-75,15.7-4.31,24.91-15.73,32.6-28.75h3.95c-7.99,14.04-17.36,26.66-34.05,31.25-39.38,10.82-35.62,64.18-75,75-14.79,4.06-23.82,14.43-31.25,26.5-3.91,6.36-6.2,11.09-9.7,17.25-7.99,14.04-17.36,26.66-34.05,31.25-39.38,10.82-35.62,64.18-75,75-14.79,4.06-23.82,14.43-31.25,26.5-3.91,6.36-6.2,11.09-9.7,17.25h-3.95c4.8-8.13,8.17-15.5,13.65-23.64,6.97-10.37,15.58-18.99,28.75-22.61Z"/>
    <path class="cls-2" d="M438.75,213.75c4.18-1.15,7.9-2.8,11.25-4.85,21.99-13.45,26.31-41.49,44.3-58.9,5.26-5.09,11.53-9.07,19.45-11.25,39.38-10.82,35.62-64.18,75-75,4.18-1.15,7.9-2.8,11.25-4.85v3.91c-2.68,1.4-5.58,2.56-8.75,3.44-39.38,10.82-35.62,64.18-75,75-6.57,1.81-12.01,4.86-16.67,8.75-20.89,17.44-24.44,49.65-49.58,62.81-2.68,1.4-5.58,2.56-8.75,3.44-39.38,10.82-35.62,64.18-75,75-6.57,1.81-12.01,4.86-16.67,8.75h-5.28c5.26-5.09,11.53-9.07,19.45-11.25,39.38-10.82,35.62-64.18,75-75Z"/>
    <path class="cls-2" d="M443.75,218.75c2.21-.61,4.29-1.36,6.25-2.23,28.65-12.72,30.85-49.51,55.35-66.52,3.9-2.71,8.31-4.85,13.4-6.25,39.38-10.82,35.62-64.18,75-75,2.21-.61,4.29-1.36,6.25-2.23v3.52c-1.21.45-2.46.86-3.75,1.21-39.33,10.81-35.65,64.19-75,75-3.4.93-6.5,2.2-9.34,3.75-28.95,15.74-29.43,57.97-61.91,70.04-1.21.45-2.46.86-3.75,1.21-39.33,10.81-35.65,64.19-75,75-3.4.93-6.5,2.2-9.34,3.75h-6.56c3.9-2.71,8.31-4.85,13.4-6.25,39.38-10.82,35.62-64.18,75-75Z"/>
    <path class="cls-2" d="M343.75,268.75c39.38-10.82,35.62-64.18,75-75,14.79-4.06,23.82-14.43,31.25-26.5,3.91-6.36,6.2-11.09,9.7-17.25,7.99-14.04,17.36-26.66,34.05-31.25,39.38-10.82,35.62-64.18,75-75,14.79-4.06,23.82-14.43,31.25-26.5v6.4c-6.97,10.37-15.58,18.99-28.75,22.61-39.38,10.82-35.62,64.18-75,75-15.7,4.31-24.91,15.73-32.6,28.75-4.8,8.13-8.17,15.5-13.65,23.64-6.97,10.37-15.58,18.99-28.75,22.61-39.38,10.82-35.62,64.18-75,75-15.7,4.31-24.91,15.73-32.6,28.75h-3.95c7.99-14.04,17.36-26.66,34.05-31.25Z"/>
    <path class="cls-2" d="M448.75,223.75c.42-.12.84-.24,1.25-.37,36.88-11.29,34.81-60.25,69.89-73.38,1.24-.47,2.53-.88,3.86-1.25,39.49-10.85,35.57-64.16,75-75,.42-.12.84-.24,1.25-.37v3.23c-36.89,11.3-34.84,60.26-69.89,73.38-1.24.46-2.53.88-3.86,1.25-39.47,10.85-35.52,64.15-75,75-.42.12-.84.24-1.25.37-36.89,11.3-34.84,60.26-69.89,73.38h-10.21c1.24-.47,2.53-.88,3.86-1.25,39.49-10.85,35.57-64.16,75-75Z"/>
    <path class="cls-2" d="M348.75,273.75c39.38-10.82,35.62-64.18,75-75,11.64-3.2,19.72-10.3,26.25-19.07,7.35-9.87,11.31-19.41,17.66-29.68,7.4-11.97,16.41-22.21,31.09-26.25,39.38-10.82,35.62-64.18,75-75,11.64-3.2,19.72-10.3,26.25-19.07v5.67c-6.09,7.29-13.55,13.09-23.75,15.9-39.38,10.82-35.62,64.18-75,75-13.65,3.75-22.4,12.87-29.51,23.75-7.76,11.88-12.51,24.29-21.74,35.35-6.09,7.29-13.55,13.09-23.75,15.9-39.38,10.82-35.62,64.18-75,75-13.65,3.75-22.4,12.87-29.51,23.75h-4.09c7.4-11.97,16.41-22.21,31.09-26.25Z"/>
    <path class="cls-2" d="M353.75,278.75c39.38-10.82,35.62-64.18,75-75,8.85-2.43,15.63-7.12,21.25-13.08,11.39-12.08,16.52-27.19,25.93-40.67,6.81-9.76,15.23-17.79,27.82-21.25,39.38-10.82,35.62-64.18,75-75,8.85-2.43,15.63-7.12,21.25-13.08v4.99c-5.11,4.77-11.18,8.5-18.75,10.59-39.38,10.82-35.62,64.18-75,75-11.5,3.16-19.52,10.13-26.01,18.75-11.23,14.91-16.52,32.86-30.24,45.66-5.11,4.77-11.18,8.5-18.75,10.59-39.38,10.82-35.62,64.18-75,75-11.5,3.16-19.52,10.13-26.01,18.75h-4.31c6.81-9.76,15.23-17.79,27.82-21.25Z"/>
    <path class="cls-2" d="M358.75,283.75c39.38-10.82,35.62-64.18,75-75,6.38-1.75,11.68-4.68,16.25-8.4,16.27-13.27,21.48-34.27,34.71-50.35,6.14-7.46,13.68-13.4,24.04-16.25,39.38-10.82,35.62-64.18,75-75,6.38-1.75,11.68-4.68,16.25-8.4v4.4c-3.98,2.82-8.5,5.06-13.75,6.5-39.38,10.82-35.62,64.18-75,75-9.18,2.52-16.14,7.47-21.87,13.75-15.54,17.01-20.31,41.24-39.38,54.75-3.98,2.82-8.5,5.06-13.75,6.5-39.38,10.82-35.62,64.18-75,75-9.18,2.52-16.14,7.47-21.87,13.75h-4.67c6.14-7.46,13.68-13.4,24.04-16.25Z"/>
    <path class="cls-2" d="M338.75,263.75c39.38-10.82,35.62-64.18,75-75,18.25-5.02,27.74-19.62,36.25-35.2l1.93-3.55c8.66-15.96,18.17-31.12,36.82-36.25,39.38-10.82,35.62-64.18,75-75,18.25-5.02,27.74-19.62,36.25-35.2v6.98c-7.93,13.83-17.26,26.19-33.75,30.72-39.38,10.82-35.62,64.18-75,75-17.68,4.86-27.14,18.73-35.45,33.75-2.18,3.93-3.39,6.33-5.8,10.53-7.93,13.83-17.26,26.19-33.75,30.72-39.38,10.82-35.62,64.18-75,75-17.68,4.86-27.14,18.73-35.45,33.75h-3.87c8.66-15.96,18.17-31.12,36.82-36.25Z"/>
    <path class="cls-2" d="M450,229.96c1.21-.45,2.46-.86,3.75-1.21,39.38-10.82,35.62-64.18,75-75,3.4-.93,6.5-2.2,9.34-3.75,28.99-15.76,29.41-57.96,61.91-70.04v3.52c-28.65,12.72-30.86,49.52-55.35,66.52-3.9,2.7-8.31,4.85-13.4,6.25-39.38,10.82-35.62,64.18-75,75-2.21.61-4.29,1.36-6.25,2.23-28.65,12.72-30.86,49.52-55.35,66.52h-6.56c28.99-15.76,29.41-57.96,61.91-70.04Z"/>
    <path class="cls-2" d="M450,237.19c2.68-1.4,5.58-2.56,8.75-3.44,39.38-10.82,35.62-64.18,75-75,6.57-1.81,12.01-4.86,16.67-8.75,20.88-17.43,24.44-49.65,49.58-62.81v3.92c-21.95,13.42-26.34,41.52-44.3,58.9-5.26,5.09-11.53,9.07-19.45,11.25-39.38,10.82-35.62,64.18-75,75-4.18,1.15-7.9,2.8-11.25,4.85-21.95,13.42-26.34,41.52-44.3,58.9h-5.28c20.88-17.43,24.44-49.65,49.58-62.81Z"/>
    <path class="cls-2" d="M450,254.34c5.11-4.77,11.18-8.51,18.75-10.59,39.38-10.82,35.62-64.18,75-75,11.5-3.16,19.52-10.13,26.01-18.75,11.24-14.93,16.51-32.85,30.24-45.66v4.99c-11.39,12.08-16.52,27.19-25.93,40.67-6.81,9.76-15.23,17.79-27.82,21.25-39.38,10.82-35.62,64.18-75,75-8.85,2.43-15.63,7.12-21.25,13.08-11.39,12.08-16.52,27.19-25.93,40.67h-4.31c11.24-14.93,16.51-32.85,30.24-45.66Z"/>
    <path class="cls-2" d="M450,245.25c3.98-2.82,8.5-5.06,13.75-6.5,39.38-10.82,35.62-64.18,75-75,9.18-2.52,16.14-7.47,21.88-13.75,15.49-16.96,20.34-41.26,39.37-54.75v4.4c-16.28,13.27-21.47,34.27-34.71,50.35-6.14,7.46-13.68,13.4-24.04,16.25-39.38,10.82-35.62,64.18-75,75-6.38,1.75-11.68,4.68-16.25,8.4-16.28,13.27-21.47,34.27-34.71,50.35h-4.67c15.49-16.96,20.34-41.26,39.37-54.75Z"/>
    <path class="cls-2" d="M333.75,258.75c39.38-10.82,35.62-64.18,75-75,17.68-4.86,27.14-18.73,35.45-33.75,2.16-3.91,3.4-6.35,5.8-10.53,7.93-13.83,17.27-26.19,33.75-30.72,39.38-10.82,35.62-64.18,75-75,17.68-4.86,27.14-18.73,35.45-33.75h3.87c-8.67,15.96-18.17,31.12-36.82,36.25-39.38,10.82-35.62,64.18-75,75-18.25,5.01-27.74,19.62-36.25,35.2-.42.77-.84,1.53-1.25,2.3-.22.42-.45.83-.68,1.25-8.67,15.96-18.17,31.12-36.82,36.25-39.38,10.82-35.62,64.18-75,75-18.25,5.01-27.74,19.62-36.25,35.2-.42.77-.84,1.53-1.25,2.3-.22.42-.45.83-.68,1.25h-3.87c2.16-3.91,3.4-6.35,5.8-10.53,7.93-13.83,17.27-26.19,33.75-30.72Z"/>
    <path class="cls-2" d="M323.75,248.75c39.38-10.82,35.62-64.18,75-75,13.65-3.75,22.4-12.87,29.51-23.75,7.76-11.88,12.51-24.29,21.74-35.35,6.09-7.29,13.55-13.09,23.75-15.9,39.38-10.82,35.62-64.18,75-75,13.65-3.75,22.4-12.87,29.51-23.75h4.09c-7.4,11.97-16.41,22.21-31.09,26.25-39.38,10.82-35.62,64.18-75,75-11.64,3.2-19.72,10.3-26.25,19.07-7.35,9.87-11.31,19.42-17.66,29.68-7.4,11.97-16.41,22.21-31.09,26.25-39.38,10.82-35.62,64.18-75,75-11.64,3.2-19.72,10.3-26.25,19.07-7.35,9.87-11.31,19.42-17.66,29.68h-4.09c7.76-11.88,12.51-24.29,21.74-35.35,6.09-7.29,13.55-13.09,23.75-15.9Z"/>
    <path class="cls-2" d="M328.75,253.75c39.38-10.82,35.62-64.18,75-75,15.7-4.31,24.91-15.73,32.6-28.75,4.8-8.13,8.17-15.5,13.65-23.64,6.97-10.37,15.58-18.99,28.75-22.61,39.38-10.82,35.62-64.18,75-75,15.7-4.31,24.91-15.73,32.6-28.75h3.95c-7.99,14.04-17.36,26.66-34.05,31.25-39.38,10.82-35.62,64.18-75,75-14.79,4.06-23.82,14.43-31.25,26.5-3.91,6.36-6.2,11.09-9.7,17.25-7.99,14.04-17.36,26.66-34.05,31.25-39.38,10.82-35.62,64.18-75,75-14.79,4.06-23.82,14.43-31.25,26.5-3.91,6.36-6.2,11.09-9.7,17.25h-3.95c4.8-8.13,8.17-15.5,13.65-23.64,6.97-10.37,15.58-18.99,28.75-22.61Z"/>
    <path class="cls-2" d="M588.75,213.75c4.18-1.15,7.9-2.8,11.25-4.85v3.92c-2.68,1.4-5.58,2.56-8.75,3.44-39.38,10.82-35.62,64.18-75,75-6.57,1.81-12.01,4.86-16.67,8.75h-5.28c5.26-5.09,11.53-9.07,19.45-11.25,39.38-10.82,35.62-64.18,75-75Z"/>
    <path class="cls-2" d="M593.75,218.75c2.21-.61,4.29-1.36,6.25-2.23v3.52c-1.21.45-2.46.86-3.75,1.21-39.33,10.81-35.65,64.19-75,75-3.4.93-6.5,2.2-9.34,3.75h-6.56c3.9-2.71,8.31-4.85,13.4-6.25,39.38-10.82,35.62-64.18,75-75Z"/>
    <path class="cls-2" d="M493.75,268.75c39.38-10.82,35.62-64.18,75-75,14.79-4.06,23.82-14.43,31.25-26.5v6.4c-6.97,10.37-15.58,18.99-28.75,22.61-39.38,10.82-35.62,64.18-75,75-15.7,4.31-24.91,15.73-32.6,28.75h-3.95c7.99-14.04,17.36-26.66,34.05-31.25Z"/>
    <path class="cls-2" d="M598.75,223.75c.42-.12.84-.24,1.25-.37v3.23c-36.89,11.3-34.84,60.26-69.89,73.38h-10.21c1.24-.47,2.53-.88,3.86-1.25,39.49-10.85,35.57-64.16,75-75Z"/>
    <path class="cls-2" d="M498.75,273.75c39.38-10.82,35.62-64.18,75-75,11.64-3.2,19.72-10.3,26.25-19.07v5.67c-6.09,7.29-13.55,13.09-23.75,15.9-39.38,10.82-35.62,64.18-75,75-13.65,3.75-22.4,12.87-29.51,23.75h-4.09c7.4-11.97,16.41-22.21,31.09-26.25Z"/>
    <path class="cls-2" d="M503.75,278.75c39.38-10.82,35.62-64.18,75-75,8.85-2.43,15.63-7.12,21.25-13.08v4.99c-5.11,4.77-11.18,8.5-18.75,10.59-39.38,10.82-35.62,64.18-75,75-11.5,3.16-19.52,10.13-26.01,18.75h-4.31c6.81-9.76,15.23-17.79,27.82-21.25Z"/>
    <path class="cls-2" d="M508.75,283.75c39.38-10.82,35.62-64.18,75-75,6.38-1.75,11.68-4.68,16.25-8.4v4.4c-3.98,2.82-8.5,5.06-13.75,6.5-39.38,10.82-35.62,64.18-75,75-9.18,2.52-16.14,7.47-21.87,13.75h-4.67c6.14-7.46,13.68-13.4,24.04-16.25Z"/>
    <path class="cls-2" d="M488.75,263.75c39.38-10.82,35.62-64.18,75-75,18.25-5.02,27.74-19.62,36.25-35.2v6.98c-7.93,13.83-17.26,26.19-33.75,30.72-39.38,10.82-35.62,64.18-75,75-17.68,4.86-27.14,18.73-35.45,33.75h-3.87c8.66-15.96,18.17-31.12,36.82-36.25Z"/>
    <path class="cls-2" d="M600,270.32c-7.35,9.87-11.31,19.42-17.66,29.68h-4.09c7.76-11.88,12.51-24.29,21.74-35.35v5.67Z"/>
    <path class="cls-2" d="M600,282.75c-3.91,6.36-6.2,11.09-9.7,17.25h-3.95c4.8-8.13,8.17-15.5,13.65-23.64v6.4Z"/>
    <path class="cls-2" d="M600,296.45c-.42.77-.84,1.53-1.25,2.3-.22.42-.45.83-.68,1.25h-3.87c2.16-3.91,3.4-6.35,5.8-10.53v6.97Z"/>
    <path class="cls-2" d="M600,229.96v3.52c-28.65,12.72-30.86,49.52-55.35,66.52h-6.56c28.99-15.76,29.41-57.96,61.91-70.04Z"/>
    <path class="cls-2" d="M600,237.19v3.92c-21.95,13.42-26.34,41.52-44.3,58.9h-5.28c20.88-17.43,24.44-49.65,49.58-62.81Z"/>
    <path class="cls-2" d="M600,254.34v4.99c-11.39,12.08-16.52,27.19-25.93,40.67h-4.31c11.24-14.93,16.51-32.85,30.24-45.66Z"/>
    <path class="cls-2" d="M600,245.25v4.4c-16.28,13.27-21.47,34.27-34.71,50.35h-4.67c15.49-16.96,20.34-41.26,39.37-54.75Z"/>
    <path class="cls-2" d="M483.75,258.75c39.38-10.82,35.62-64.18,75-75,17.68-4.86,27.14-18.73,35.45-33.75,2.16-3.91,3.4-6.35,5.8-10.53v6.97c-.42.77-.84,1.53-1.25,2.3-.22.42-.45.83-.68,1.25-8.67,15.96-18.17,31.12-36.82,36.25-39.38,10.82-35.62,64.18-75,75-18.25,5.01-27.74,19.62-36.25,35.2-.42.77-.84,1.53-1.25,2.3-.22.42-.45.83-.68,1.25h-3.87c2.16-3.91,3.4-6.35,5.8-10.53,7.93-13.83,17.27-26.19,33.75-30.72Z"/>
    <path class="cls-2" d="M473.75,248.75c39.38-10.82,35.62-64.18,75-75,13.65-3.75,22.4-12.87,29.51-23.75,7.76-11.88,12.51-24.29,21.74-35.35v5.67c-7.35,9.87-11.31,19.42-17.66,29.68-7.4,11.97-16.41,22.21-31.09,26.25-39.38,10.82-35.62,64.18-75,75-11.64,3.2-19.72,10.3-26.25,19.07-7.35,9.87-11.31,19.42-17.66,29.68h-4.09c7.76-11.88,12.51-24.29,21.74-35.35,6.09-7.29,13.55-13.09,23.75-15.9Z"/>
    <path class="cls-2" d="M478.75,253.75c39.38-10.82,35.62-64.18,75-75,15.7-4.31,24.91-15.73,32.6-28.75,4.8-8.13,8.17-15.5,13.65-23.64v6.4c-3.91,6.36-6.2,11.09-9.7,17.25-7.99,14.04-17.36,26.66-34.05,31.25-39.38,10.82-35.62,64.18-75,75-14.79,4.06-23.82,14.43-31.25,26.5-3.91,6.36-6.2,11.09-9.7,17.25h-3.95c4.8-8.13,8.17-15.5,13.65-23.64,6.97-10.37,15.58-18.99,28.75-22.61Z"/>
    <path class="cls-2" d="M43.75,118.75c39.38-10.82,35.62-64.18,75-75,14.79-4.06,23.82-14.43,31.25-26.5,3.91-6.36,6.2-11.09,9.7-17.25h3.95c-4.8,8.13-8.17,15.5-13.65,23.64-6.97,10.37-15.58,18.99-28.75,22.61-39.38,10.82-35.62,64.18-75,75-15.7,4.31-24.91,15.73-32.6,28.75-4.8,8.13-8.17,15.5-13.65,23.64v-6.4c3.91-6.36,6.2-11.09,9.7-17.25,7.99-14.04,17.36-26.66,34.05-31.25Z"/>
    <path class="cls-2" d="M48.75,123.75c39.38-10.82,35.62-64.18,75-75,11.64-3.2,19.72-10.3,26.25-19.07,7.35-9.87,11.31-19.41,17.66-29.68h4.09c-7.76,11.88-12.51,24.29-21.74,35.35-6.09,7.29-13.55,13.09-23.75,15.9-39.38,10.82-35.62,64.18-75,75-13.65,3.75-22.4,12.87-29.51,23.75-7.76,11.88-12.51,24.29-21.74,35.35v-5.67c7.35-9.87,11.31-19.41,17.66-29.68,7.4-11.97,16.41-22.21,31.09-26.25Z"/>
    <path class="cls-2" d="M53.75,128.75c39.38-10.82,35.62-64.18,75-75,8.85-2.43,15.63-7.12,21.25-13.08,11.39-12.08,16.52-27.19,25.93-40.67h4.31c-11.23,14.91-16.52,32.86-30.24,45.66-5.11,4.77-11.18,8.5-18.75,10.59-39.38,10.82-35.62,64.18-75,75-11.5,3.16-19.52,10.13-26.01,18.75-11.23,14.91-16.52,32.86-30.24,45.66v-4.99c11.39-12.08,16.52-27.19,25.93-40.67,6.81-9.76,15.23-17.79,27.82-21.25Z"/>
    <path class="cls-2" d="M38.75,113.75c39.38-10.82,35.62-64.18,75-75,18.25-5.02,27.74-19.62,36.25-35.2l1.93-3.55h3.87c-2.18,3.93-3.39,6.33-5.8,10.53-7.93,13.83-17.26,26.19-33.75,30.72-39.38,10.82-35.62,64.18-75,75-17.68,4.86-27.14,18.73-35.45,33.75-2.18,3.93-3.39,6.33-5.8,10.53v-6.98l1.93-3.55c8.66-15.96,18.17-31.12,36.82-36.25Z"/>
    <path class="cls-2" d="M34.71,0h4.67C23.83,17.01,19.07,41.24,0,54.75v-4.4C16.27,37.08,21.48,16.07,34.71,0Z"/>
    <path class="cls-2" d="M55.35,0h6.56C32.96,15.74,32.48,57.97,0,70.04v-3.52C28.65,53.8,30.85,17.01,55.35,0Z"/>
    <path class="cls-2" d="M30.24,0C19.01,14.91,13.72,32.86,0,45.66v-4.99C11.39,28.59,16.52,13.49,25.93,0h4.31Z"/>
    <path class="cls-2" d="M44.3,0h5.28C28.69,17.44,25.14,49.65,0,62.81v-3.91C21.99,45.45,26.31,17.41,44.3,0Z"/>
    <path class="cls-2" d="M1.93,0h3.87C3.62,3.93,2.41,6.33,0,10.53V3.55L1.93,0Z"/>
    <path class="cls-2" d="M21.74,0C13.99,11.88,9.23,24.29,0,35.35v-5.67C7.35,19.81,11.31,10.27,17.66,0h4.09Z"/>
    <path class="cls-2" d="M13.65,0C8.84,8.13,5.47,15.5,0,23.64v-6.4C3.91,10.88,6.2,6.15,9.7,0h3.95Z"/>
    <path class="cls-2" d="M33.75,108.75c39.38-10.82,35.62-64.18,75-75,17.68-4.86,27.14-18.73,35.45-33.75h3.87c-8.67,15.96-18.17,31.12-36.82,36.25-39.38,10.82-35.62,64.18-75,75-18.25,5.01-27.74,19.62-36.25,35.2v-6.97c7.93-13.83,17.27-26.19,33.75-30.72Z"/>
    <path class="cls-2" d="M23.75,98.75c39.38-10.82,35.62-64.18,75-75,13.65-3.75,22.4-12.87,29.51-23.75h4.09c-7.4,11.97-16.41,22.21-31.09,26.25-39.38,10.82-35.62,64.18-75,75-11.64,3.2-19.72,10.3-26.25,19.07v-5.67c6.09-7.29,13.55-13.09,23.75-15.9Z"/>
    <path class="cls-2" d="M93.75,18.75c11.5-3.16,19.52-10.13,26.01-18.75h4.31c-6.81,9.76-15.23,17.79-27.82,21.25-39.38,10.82-35.62,64.18-75,75-8.85,2.43-15.63,7.12-21.25,13.08v-4.99c5.11-4.77,11.18-8.51,18.75-10.59C58.13,82.93,54.37,29.57,93.75,18.75Z"/>
    <path class="cls-2" d="M28.75,103.75c39.38-10.82,35.62-64.18,75-75,15.7-4.31,24.91-15.73,32.6-28.75h3.95c-7.99,14.04-17.36,26.66-34.05,31.25-39.38,10.82-35.62,64.18-75,75-14.79,4.06-23.82,14.43-31.25,26.5v-6.4c6.97-10.37,15.58-18.99,28.75-22.61Z"/>
    <path class="cls-2" d="M88.75,13.75c9.18-2.52,16.14-7.47,21.88-13.75h4.67c-6.14,7.46-13.68,13.4-24.04,16.25C51.87,27.07,55.63,80.43,16.25,91.25c-6.38,1.75-11.68,4.68-16.25,8.4v-4.4c3.98-2.82,8.5-5.06,13.75-6.5C53.13,77.93,49.37,24.57,88.75,13.75Z"/>
    <path class="cls-2" d="M78.75,3.75c3.4-.93,6.5-2.2,9.34-3.75h6.56c-3.9,2.71-8.31,4.85-13.4,6.25C41.87,17.07,45.63,70.43,6.25,81.25c-2.21.61-4.29,1.36-6.25,2.23v-3.52c1.21-.45,2.46-.86,3.75-1.21C43.13,67.93,39.37,14.57,78.75,3.75Z"/>
    <path class="cls-2" d="M69.89,0h10.21c-1.24.46-2.53.88-3.86,1.25C36.78,12.1,40.73,65.4,1.25,76.25c-.42.12-.84.24-1.25.37v-3.23C36.88,62.09,34.81,13.14,69.89,0Z"/>
    <path class="cls-2" d="M83.75,8.75c6.57-1.81,12.01-4.86,16.67-8.75h5.28c-5.26,5.09-11.53,9.07-19.45,11.25C46.87,22.07,50.63,75.43,11.25,86.25c-4.18,1.15-7.9,2.8-11.25,4.85v-3.92c2.68-1.4,5.58-2.56,8.75-3.44C48.13,72.93,44.37,19.57,83.75,8.75Z"/>
  </g>
</svg>